HIERARCHY
ROOT Hips
{
  OFFSET 279.157 85.6768 304.565
  CHANNELS 6 Xposition Yposition Zposition Zrotation Xrotation Yrotation
  JOINT LeftUpLeg
  {
    OFFSET 8.64259 1.95398 -2.38835
    CHANNELS 3 Zrotation Xrotation Yrotation
    JOINT LeftLeg
    {
      OFFSET 43.7702 0 0
      CHANNELS 3 Zrotation Xrotation Yrotation
      JOINT LeftFoot
      {
        OFFSET 40.6238 0 0
        CHANNELS 3 Zrotation Xrotation Yrotation
        JOINT LeftToeBase
        {
          OFFSET 12.7242 0 0
          CHANNELS 3 Zrotation Xrotation Yrotation
          End Site
          {
            OFFSET 0 0 0
          }
        }
      }
    }
  }
  JOINT RightUpLeg
  {
    OFFSET -8.2249 1.95398 -2.59336
    CHANNELS 3 Zrotation Xrotation Yrotation
    JOINT RightLeg
    {
      OFFSET 43.5653 0 0
      CHANNELS 3 Zrotation Xrotation Yrotation
      JOINT RightFoot
      {
        OFFSET 40.6238 0 0
        CHANNELS 3 Zrotation Xrotation Yrotation
        JOINT RightToeBase
        {
          OFFSET 12.7242 0 0
          CHANNELS 3 Zrotation Xrotation Yrotation
          End Site
          {
            OFFSET 0 0 0
          }
        }
      }
    }
  }
  JOINT Spine
  {
    OFFSET 0.165834 0.87714 6.61349
    CHANNELS 3 Zrotation Xrotation Yrotation
    JOINT Spine1
    {
      OFFSET 7.38963 1.71661e-005 0
      CHANNELS 3 Zrotation Xrotation Yrotation
      JOINT Spine2
      {
        OFFSET 11.9445 1.14441e-005 0
        CHANNELS 3 Zrotation Xrotation Yrotation
        JOINT Spine3
        {
          OFFSET 14.7254 4.19617e-005 0
          CHANNELS 3 Zrotation Xrotation Yrotation
          JOINT Spine4
          {
            OFFSET 10.9679 0 0
            CHANNELS 3 Zrotation Xrotation Yrotation
            JOINT RightShoulder
            {
              OFFSET 2.46616 -1.6653 3.69651
              CHANNELS 3 Zrotation Xrotation Yrotation
              JOINT RightArm
              {
                OFFSET 13.0012 0 0
                CHANNELS 3 Zrotation Xrotation Yrotation
                JOINT RightForeArm
                {
                  OFFSET 28.7848 1.52588e-005 0
                  CHANNELS 3 Zrotation Xrotation Yrotation
                  JOINT RightHand
                  {
                    OFFSET 26.5688 1.52588e-005 0
                    CHANNELS 3 Zrotation Xrotation Yrotation
                    End Site
                    {
                      OFFSET 0 0 0
                    }
                  }
                }
              }
            }
            JOINT LeftShoulder
            {
              OFFSET 2.38034 -1.29275 -3.7523
              CHANNELS 3 Zrotation Xrotation Yrotation
              JOINT LeftArm
              {
                OFFSET 16.3182 6.10351e-005 0
                CHANNELS 3 Zrotation Xrotation Yrotation
                JOINT LeftForeArm
                {
                  OFFSET 27.0901 0 0
                  CHANNELS 3 Zrotation Xrotation Yrotation
                  JOINT LeftHand
                  {
                    OFFSET 24.5451 1.52588e-005 0
                    CHANNELS 3 Zrotation Xrotation Yrotation
                    End Site
                    {
                      OFFSET 0 0 0
                    }
                  }
                }
              }
            }
            JOINT Neck
            {
              OFFSET 5.0226 -0.0266342 0
              CHANNELS 3 Zrotation Xrotation Yrotation
              JOINT Head
              {
                OFFSET 6.69364 2.86102e-005 0
                CHANNELS 3 Zrotation Xrotation Yrotation
                End Site
                {
                  OFFSET 0 0 0
                }
              }
            }
          }
        }
      }
    }
  }
}
MOTION
Frames:	10
Frame Time:	0.0416667
0.137658 95.492 -26.0873 97.4067 -61.5134 99.6261 -176.668 16.1072 101.055 -44.8284 31.0565 6.88979 85.0627 17.2109 -4.87816 22.9201 -6.56794 10.9498 171.58 13.3127 68.9509 -28.478 -19.1643 -9.74116 62.8943 -0.902936 -0.995835 16.2745 3.97533 1.55296 -0.281765 7.90742 -90.7276 11.0517 -0.898114 -1.36148 -0.619561 -0.957167 -1.32065 -23.1498 -0.447476 -1.56841 -3.13716 -0.447466 -1.56841 92.1587 -29.4429 -102.636 47.306 0.0241871 15.2128 4.59107 -14.0956 -9.68906 -21.7462 0.48569 -11.9819 -86.2373 -47.0078 83.907 -10.2639 14.993 -12.5331 5.503 9.39358 -28.9126 -0.933776 -0.201417 -13.1851 -28.5571 -5.72215 -5.22752 -6.89212 -6.44819 -0.417852 
-9.12536 92.8282 -19.5892 97.7364 -61.0199 98.4496 -175.612 15.4833 107.114 -44.0502 33.5422 8.58583 85.4922 16.9603 -6.02846 29.5706 -3.10997 15.1509 170.877 17.0551 68.1299 -32.7238 -19.263 -8.08391 60.2846 0.396274 0.125468 22.2848 2.25881 -0.76178 -0.529345 7.98385 -90.6016 10.9004 -1.33205 -1.06993 -0.770216 -1.37787 -1.01027 -23.3052 -0.94894 -1.42077 -3.29253 -0.948952 -1.42078 93.2401 -29.2277 -100.5 48.9943 -0.541082 17.293 5.29073 -16.3567 -8.31504 -20.9131 0.325375 -12.1066 -85.9486 -47.231 84.3912 -12.1217 12.4249 -8.3328 5.43949 8.71771 -27.028 1.55983 -0.349048 -11.8314 -28.2921 -6.40674 -4.85879 -7.30246 -7.02052 -2.05579 
-20.6063 92.1413 -12.5068 104.957 -63.9629 104.028 -176.064 13.732 112.378 -46.1273 37.9637 12.9303 66.9132 5.95573 -1.78648 37.6787 1.53796 20.9035 169.63 18.7681 70.8918 -42.6164 -20.4563 -4.94263 64.5502 -2.85229 1.00347 40.1431 -3.69878 -4.47451 -0.437351 8.40141 -90.3949 10.0668 -1.05113 -0.697355 -1.60385 -1.08081 -0.650416 -24.1396 -0.792963 -0.981018 -4.1269 -0.792963 -0.981019 93.0684 -28.3386 -101.119 50.5869 -1.51733 16.3315 6.28325 -16.3403 -6.7287 -22.0087 0.207458 -11.0311 -84.9018 -47.6675 86.0826 -14.5277 8.15638 0.243043 5.48196 6.00623 -25.5979 -1.05666 -0.175232 -11.5618 -29.053 -4.71641 -1.55742 -6.79089 -4.91975 -2.98923 
-31.1329 94.143 -6.95618 110.996 -67.2834 110.404 173.987 17.5124 111.666 -61.2671 37.7865 20.4872 50.7457 -4.98228 -1.18811 13.2611 -10.91 6.41678 169.879 16.7658 77.7414 -44.6541 -18.9771 -2.6688 69.9301 -5.84286 2.11779 39.7619 -3.74296 0.170695 -0.0911355 8.76531 -90.4221 9.34133 -0.371253 -0.80913 -2.3298 -0.406504 -0.79202 -24.8631 -0.110923 -0.883293 -4.85044 -0.110922 -0.883301 91.2724 -27.9362 -104.966 47.521 -2.86856 13.6767 5.87838 -15.4533 -8.47956 -24.2413 0.261544 -10.4631 -84.4461 -49.1515 86.9722 -17.0527 5.69757 7.53065 5.89577 5.90977 -25.1997 -3.14865 -0.037673 -12.1704 -30.8024 -3.25599 0.0398277 -5.9538 -3.24304 -3.33911 
-38.859 96.7386 -3.05473 112.242 -71.3051 111.166 172.798 27.0855 105.204 -64.4447 27.0644 13.1053 59.5179 0.444437 1.20691 6.91213 -13.8902 3.2798 170.851 13.4708 82.3724 -38.9506 -19.2645 -1.41979 71.5481 -6.71866 2.00952 36.2983 -2.72562 2.94904 0.394876 8.81373 -90.4631 9.24802 0.579897 -0.959503 -2.42315 0.537119 -0.984093 -24.9575 0.841453 -0.740871 -4.94484 0.841455 -0.740872 91.6459 -26.7657 -104.623 41.5061 -1.61728 9.41518 3.69971 -15.2565 -12.0502 -24.9829 0.638287 -12.1263 -84.3797 -50.4868 87.2341 -21.0772 6.07866 11.0674 5.76169 8.63861 -22.8488 -1.76663 -0.122161 -10.3478 -31.818 -3.20796 0.663876 -5.4376 -3.11846 -3.60833 
-44.7519 98.9469 0.659341 110.731 -76.1582 109.236 -176.651 34.8913 94.2059 -54.7045 18.6907 2.03743 63.6147 2.10008 -1.72074 12.5457 -11.849 6.6504 171.192 10.8769 85.3144 -31.898 -22.0475 0.211218 70.9978 -6.22706 1.69335 31.7593 -1.4345 4.23734 0.829839 8.69717 -90.4918 9.48639 1.43321 -1.08166 -2.18424 1.38421 -1.1437 -24.7246 1.69201 -0.60085 -4.7119 1.69201 -0.600853 91.8287 -25.6854 -104.644 36.8552 0.202207 5.08037 0.596116 -14.3825 -17.7635 -27.1469 1.32174 -14.4243 -83.542 -49.484 88.3869 -26.3967 6.17774 14.7205 5.25229 10.1279 -21.3277 -4.09287 0.0283165 -12.4994 -32.1409 -3.08308 1.07565 -4.3633 -2.96685 -3.16002 
-49.7229 99.4764 4.89957 110.119 -80.0586 109.865 -167.123 36.5551 84.2232 -45.2441 8.28434 -7.17374 64.4334 1.68126 -3.41818 19.2772 -8.25141 8.74952 171.944 8.62386 89.1276 -28.6124 -24.6515 2.00916 71.2847 -6.53753 0.404762 28.3096 -0.596709 5.63007 1.03887 8.56483 -90.784 9.7539 1.71612 -1.69189 -1.91713 1.64001 -1.76577 -24.4568 2.1452 -1.09787 -4.44418 2.14521 -1.09787 91.8181 -24.8306 -104.992 34.2987 0.749781 2.23203 -2.9407 -17.3953 -26.0767 -28.0295 1.42241 -15.4782 -83.1769 -49.2852 88.9235 -29.4162 7.46069 18.2796 3.975 9.99891 -20.6263 -3.80541 -0.00246128 -11.2401 -32.5116 -2.96163 2.5296 -4.2683 -2.63929 -2.43518 
-54.2929 98.1918 9.82363 125.062 -83.0203 126.992 -162.952 31.6394 79.79 -36.7356 -3.86184 -13.9027 60.7612 -1.22056 -4.6127 19.7952 -8.0202 9.06313 172.719 6.54129 93.4263 -31.7422 -25.141 4.09088 75.1422 -8.85178 -0.353311 22.7087 0.661486 7.72738 1.17122 8.58198 -91.1653 9.72581 1.80764 -2.45379 -1.94633 1.69792 -2.53092 -24.4805 2.46142 -1.79724 -4.46788 2.46143 -1.79723 90.8256 -25.3504 -106.912 31.9514 -1.13598 0.49765 -5.80261 -19.4573 -31.8183 -27.4865 1.46744 -16.7089 -82.9822 -49.9393 89.2823 -29.0326 7.6498 19.0218 2.82774 9.94372 -17.9181 -2.80266 -0.0707333 -9.84201 -33.0884 -3.26229 4.37697 -4.37236 -2.65051 -2.05248 
-59.0481 95.8829 15.5563 136.451 -84.4439 139.877 -165.266 25.7959 78.0546 -28.2148 -14.6191 -15.7595 57.0305 -3.8504 -5.32433 20.5509 -7.32767 8.52725 173.487 4.47797 97.2755 -35.4997 -25.9489 5.99621 79.5004 -11.8408 -1.51078 20.3257 1.16491 8.45202 1.28677 8.42919 -91.4069 10.0328 1.92432 -2.95161 -1.64023 1.79262 -3.03337 -24.1697 2.72223 -2.23718 -4.15704 2.72222 -2.23719 90.8325 -25.8318 -106.702 29.9415 -6.9044 -0.658784 -5.47968 -18.9533 -33.2356 -25.3735 1.49515 -17.8154 -83.8613 -50.3078 87.9933 -26.8964 6.52778 18.0854 2.37156 8.07642 -15.5488 -1.40916 -0.125026 -8.47213 -32.4737 -3.8104 5.42744 -5.53387 -3.06379 -2.18563 
-65.4325 94.5668 22.4512 164.804 -87.7485 166.897 -167.929 24.0178 77.9201 -28.2692 -17.408 -14.3621 61.3162 -1.19395 -3.65766 14.7893 -9.42343 4.44981 175.326 0.842594 100.098 -34.0462 -26.074 6.07566 80.9542 -13.9182 -4.83693 15.9289 0.905829 14.5981 1.64929 8.21252 -91.0074 10.4856 2.82273 -2.26245 -1.18446 2.72043 -2.38449 -23.7383 3.37213 -1.30904 -3.7257 3.37213 -1.30904 89.418 -25.0783 -110.031 31.8747 -8.37876 -0.293916 -4.87188 -19.7828 -30.4974 -22.9414 1.17719 -17.7649 -83.4247 -49.6159 88.5797 -24.3953 6.44083 14.4971 2.19247 3.53397 -15.6283 0.773649 -0.204665 -8.49488 -30.534 -3.52904 4.39643 -6.85529 -2.98517 -1.95164 
